<svg xmlns="http://www.w3.org/2000/svg" width="214" height="40" viewBox="0 0 214 40">
    <g fill="#FFF" fill-rule="evenodd">
        <path d="M11.25.18H1.159C.518.18 0 .7 0 1.343v37.348c0 .631.5 1.144 1.126 1.161a1.53 1.53 0 0 1-.02-.23V2.274c0-.242.197-.44.438-.44s.437.198.437.44v37.348c0 .081.014.16.039.233h9.23c.64 0 1.159-.521 1.159-1.164V1.343A1.16 1.16 0 0 0 11.25.18M63.549 2.064l-5.558 22.6a.436.436 0 1 1-.85-.211l5.559-22.6a.437.437 0 1 1 .849.21m-21.1 10.951l-4.085 11.754a.438.438 0 1 1-.825-.29l4.085-11.754a.437.437 0 1 1 .825.29M73.394.625a1.155 1.155 0 0 0-.912-.446h-9.686c-.08 0-.16.01-.236.026-.46.033-.864.354-.98.822l-5.558 22.6-3.968-11.681a1.16 1.16 0 0 0-1.13-.907H41.62c-.537 0-1.005.373-1.127.9l-4.084 11.753-5.575-22.665a1.086 1.086 0 0 0-.924-.816 1.141 1.141 0 0 0-.263-.032h-9.685a1.16 1.16 0 0 0-1.125 1.444l9.203 37.348a1.16 1.16 0 0 0 1.081.882L19.956 2.659a.44.44 0 0 1 .425-.545c.2 0 .375.138.423.334l9.203 37.348c.005.02.013.04.02.058h11.008c.543 0 1.032-.374 1.13-.91.45-2.456 4.102-14.047 4.102-14.047l4.06 14.044c.114.518.56.89 1.083.911l-4.019-13.901a.44.44 0 0 1 .42-.562.44.44 0 0 1 .42.317l4.065 14.063v.004l.002.004c.006.027.015.052.024.077H63.33c.533 0 .997-.365 1.124-.885l9.152-37.347a1.165 1.165 0 0 0-.212-.997M92.392 10.656h1.765c1.567 0 2.84.288 3.85.869 1.342.321 2.392.955 3.177 1.916 1.213 1.489 1.828 3.868 1.828 7.073 0 3.445-.655 6.011-1.948 7.627a.308.308 0 0 1-.434.048.312.312 0 0 1-.047-.437c1.202-1.502 1.812-3.938 1.812-7.238 0-3.058-.569-5.305-1.689-6.679a4.7 4.7 0 0 0-1.276-1.09c1.148 1.434 1.73 3.733 1.73 6.838 0 3.373-.633 5.873-1.88 7.433-1.203 1.504-3.103 2.235-5.81 2.235h-1.078V10.656zm-11.2 29.198h.097a1.468 1.468 0 0 1-.02-.232V2.274a.31.31 0 0 1 .309-.31c.17 0 .309.139.309.31v37.348c0 .08.011.159.033.232h11.297c6.47 0 11.59-1.813 15.213-5.391 3.629-3.584 5.468-8.71 5.468-15.237 0-6.098-1.76-10.852-5.232-14.132-3.452-3.261-8.369-4.915-14.61-4.915H81.192a1.16 1.16 0 0 0-1.158 1.164V38.69a1.16 1.16 0 0 0 1.158 1.163z"/>
        <g>
            <path d="M120.47 24.944v-8.79h1.579v8.79h-1.58zm3.874 0v-8.79h1.62l2.776 4.946.911 1.868h.055c-.068-.9-.204-2.016-.204-2.997v-3.817h1.51v8.79h-1.62l-2.776-4.946-.911-1.868h-.055c.068.927.204 1.989.204 2.97v3.844h-1.51zm10.76 0v-7.473h-2.572v-1.317h6.723v1.317h-2.572v7.473h-1.58zm5.67 0v-8.79h5.363v1.317h-3.784v2.245h3.198v1.317h-3.198v2.594h3.92v1.317h-5.499zm7.358 0v-8.79h3.008c1.85 0 3.266.645 3.266 2.607 0 1.344-.707 2.151-1.77 2.514l2.124 3.67h-1.77l-1.918-3.442h-1.361v3.441h-1.579zm1.579-4.677h1.266c1.21 0 1.878-.511 1.878-1.506 0-1.008-.667-1.357-1.878-1.357h-1.266v2.863zm6.514 4.677v-8.79h1.62l2.776 4.946.912 1.868h.054c-.068-.9-.204-2.016-.204-2.997v-3.817h1.51v8.79h-1.619l-2.776-4.946-.912-1.868h-.055c.068.927.205 1.989.205 2.97v3.844h-1.511zm10.787-4.677l-.313 1.075h2.273l-.313-1.075c-.286-.928-.544-1.936-.803-2.904h-.054a56.4 56.4 0 0 1-.79 2.904zm-2.98 4.677l2.899-8.79h1.85l2.9 8.79h-1.66l-.695-2.379h-2.994l-.694 2.38h-1.606zm8.841 0v-7.473h-2.572v-1.317h6.723v1.317h-2.572v7.473h-1.579zm5.67 0v-8.79h1.58v8.79h-1.58zm7.331.162c-2.314 0-3.92-1.748-3.92-4.597 0-2.836 1.606-4.517 3.92-4.517 2.327 0 3.933 1.68 3.933 4.517 0 2.85-1.606 4.597-3.933 4.597zm0-1.358c1.402 0 2.3-1.263 2.3-3.24 0-1.962-.898-3.158-2.3-3.158-1.402 0-2.3 1.196-2.3 3.159 0 1.976.898 3.24 2.3 3.24zm5.752 1.196v-8.79h1.62l2.776 4.946.912 1.868h.054c-.068-.9-.204-2.016-.204-2.997v-3.817h1.51v8.79h-1.619l-2.776-4.946-.912-1.868h-.055c.068.927.205 1.989.205 2.97v3.844h-1.511zm10.787-4.677l-.313 1.075h2.273l-.313-1.075c-.286-.928-.544-1.936-.803-2.904h-.054a56.4 56.4 0 0 1-.79 2.904zm-2.98 4.677l2.899-8.79h1.85l2.9 8.79h-1.66l-.695-2.379h-2.994l-.694 2.38h-1.606zm8.787 0v-8.79h1.579v7.473h3.701v1.317h-5.28zM121.355 38.334l-1.77-8.79h1.62l.776 4.435c.15.941.299 1.882.435 2.81h.055c.19-.928.38-1.882.585-2.81l1.089-4.436h1.374l1.089 4.436c.204.914.395 1.868.599 2.81h.054c.136-.942.286-1.882.422-2.81l.776-4.436h1.51l-1.7 8.791h-1.96l-1.103-4.624a37.993 37.993 0 0 1-.395-2.03h-.054a59.446 59.446 0 0 1-.408 2.03l-1.075 4.624h-1.92zm13.387.161c-2.314 0-3.92-1.747-3.92-4.597 0-2.836 1.606-4.516 3.92-4.516 2.327 0 3.933 1.68 3.933 4.516 0 2.85-1.606 4.597-3.933 4.597zm0-1.357c1.401 0 2.3-1.264 2.3-3.24 0-1.962-.899-3.158-2.3-3.158-1.402 0-2.3 1.196-2.3 3.158 0 1.976.898 3.24 2.3 3.24zm5.752 1.196v-8.79h1.782l1.58 4.3c.19.552.38 1.143.57 1.721h.055c.19-.578.368-1.17.558-1.72l1.538-4.302h1.797v8.791h-1.457v-4.019c0-.82.123-1.99.205-2.796h-.055l-.721 2.043-1.456 3.952h-.94l-1.47-3.952-.707-2.043h-.055c.068.807.205 1.976.205 2.796v4.02h-1.43zm10.175 0v-8.79h5.362v1.317h-3.784v2.244h3.199v1.318h-3.199v2.594h3.92v1.317h-5.498zm7.357 0v-8.79h1.62l2.777 4.946.911 1.868h.055c-.068-.9-.204-2.016-.204-2.997v-3.818h1.51v8.791h-1.62l-2.776-4.946-.912-1.869h-.054c.068.928.204 1.99.204 2.97v3.845h-1.51zm9.128-5.255l-.381-.686c.748-.43 1.13-.914 1.13-1.694-.042.014-.082.014-.123.014-.477 0-.885-.31-.885-.834 0-.564.368-.927.885-.927.694 0 1.075.551 1.075 1.492 0 1.17-.572 2.057-1.701 2.635zm6.214 5.416a4.641 4.641 0 0 1-3.212-1.29l.926-1.062c.64.592 1.497.995 2.313.995 1.008 0 1.552-.444 1.552-1.13 0-.725-.572-.954-1.375-1.29l-1.224-.524c-.872-.363-1.797-1.048-1.797-2.339 0-1.398 1.252-2.473 2.994-2.473 1.035 0 2.042.43 2.736 1.116l-.803.994c-.572-.47-1.17-.752-1.933-.752-.844 0-1.402.39-1.402 1.035 0 .685.68.94 1.416 1.236l1.211.498c1.048.443 1.797 1.102 1.797 2.379 0 1.425-1.198 2.607-3.199 2.607zm7.612-.16v-8.792h2.381c2.722 0 4.328 1.452 4.328 4.355 0 2.917-1.606 4.436-4.246 4.436h-2.463zm1.578-1.264h.694c1.797 0 2.818-1.009 2.818-3.173 0-2.15-1.021-3.091-2.818-3.091h-.694v6.264zm8.515-3.415l-.313 1.076h2.273l-.313-1.076c-.286-.927-.545-1.935-.803-2.903h-.055a56.4 56.4 0 0 1-.789 2.903zm-2.98 4.678l2.898-8.79h1.851l2.9 8.79h-1.661l-.694-2.379h-2.994l-.695 2.38h-1.606zm9.834 0v-3.266l-2.667-5.525h1.687l.967 2.245c.258.659.503 1.264.79 1.936h.054c.285-.672.558-1.277.816-1.936l.966-2.245h1.647l-2.68 5.525v3.266h-1.58z"/>
        </g>
    </g>
</svg>
