<svg xmlns="http://www.w3.org/2000/svg" xmlns:xlink="http://www.w3.org/1999/xlink" width="748" height="352" viewBox="0 0 748 352">
    <defs>
        <path id="a" d="M0 351.44h748V0H0z"/>
    </defs>
    <g fill="none" fill-rule="evenodd">
        <path fill="#FFF" d="M384.356 104.295a1.2 1.2 0 0 1-1.2-1.283c.205-3.009.31-6.08.31-9.129 0-43.682-21.065-79.22-46.956-79.22-25.892 0-46.956 35.538-46.956 79.22 0 1.851.038 3.724.115 5.564a1.202 1.202 0 0 1-2.4.098 138.332 138.332 0 0 1-.117-5.662c0-21.695 5.07-42.11 14.276-57.483 9.32-15.566 21.78-24.14 35.082-24.14s25.76 8.574 35.081 24.14c9.206 15.373 14.276 35.788 14.276 57.483 0 3.103-.106 6.23-.315 9.292a1.201 1.201 0 0 1-1.196 1.12M383.128 248.594a1.2 1.2 0 0 1-1.184-1.017c-.182-1.17-.383-2.353-.599-3.518a1.201 1.201 0 0 1 2.362-.438c.22 1.187.425 2.394.61 3.588a1.2 1.2 0 0 1-1.189 1.385M381.976 242.26a1.202 1.202 0 0 1-1.175-.956 114.044 114.044 0 0 0-.783-3.478 1.201 1.201 0 0 1 2.334-.565c.282 1.165.551 2.36.8 3.55a1.201 1.201 0 0 1-1.176 1.448M292.072 299.87a1.202 1.202 0 0 1-1.164-.91 121.267 121.267 0 0 1-.83-3.544 1.201 1.201 0 0 1 2.346-.512c.253 1.161.527 2.33.814 3.473a1.2 1.2 0 0 1-1.166 1.493M297.343 315.621c-.465 0-.908-.272-1.104-.727a99.687 99.687 0 0 1-2.597-6.727 1.2 1.2 0 1 1 2.27-.785 96.7 96.7 0 0 0 2.534 6.564 1.201 1.201 0 0 1-1.103 1.675m78.315.043a1.203 1.203 0 0 1-1.102-1.676 97.738 97.738 0 0 0 2.537-6.563 1.201 1.201 0 0 1 2.27.787 100 100 0 0 1-2.601 6.724 1.2 1.2 0 0 1-1.104.728m-70.3 14.487a1.2 1.2 0 0 1-.982-.509 74.562 74.562 0 0 1-3.87-6.118 1.201 1.201 0 0 1 2.089-1.186 71.655 71.655 0 0 0 3.744 5.919 1.203 1.203 0 0 1-.981 1.894m62.277.038a1.2 1.2 0 0 1-.98-1.895 71.441 71.441 0 0 0 3.747-5.916 1.2 1.2 0 1 1 2.087 1.188 73.753 73.753 0 0 1-3.873 6.115 1.2 1.2 0 0 1-.981.508m-50.899 11.983c-.252 0-.505-.078-.722-.242a48.477 48.477 0 0 1-5.468-4.83 1.203 1.203 0 0 1 .018-1.698 1.202 1.202 0 0 1 1.697.018 46.442 46.442 0 0 0 5.197 4.592 1.199 1.199 0 0 1-.722 2.16m39.51.028a1.201 1.201 0 0 1-.721-2.162 46.108 46.108 0 0 0 5.201-4.586 1.2 1.2 0 1 1 1.715 1.683 48.54 48.54 0 0 1-5.474 4.824 1.19 1.19 0 0 1-.72.241m-24.482 6.657c-.065 0-.13-.006-.195-.016a32.25 32.25 0 0 1-7.091-2.026 1.202 1.202 0 0 1 .914-2.221 29.912 29.912 0 0 0 6.563 1.876 1.2 1.2 0 0 1-.19 2.387m9.443.007a1.2 1.2 0 0 1-.19-2.387 29.93 29.93 0 0 0 6.567-1.868 1.2 1.2 0 1 1 .91 2.222 32.313 32.313 0 0 1-7.093 2.017c-.065.01-.13.016-.194.016M380.947 299.87a1.201 1.201 0 0 1-1.165-1.494c.284-1.128.557-2.297.814-3.472a1.2 1.2 0 1 1 2.346.512 122.02 122.02 0 0 1-.83 3.546 1.202 1.202 0 0 1-1.165.908M291.044 242.26a1.202 1.202 0 0 1-1.177-1.448c.248-1.187.518-2.381.801-3.551a1.2 1.2 0 1 1 2.334.565 116.388 116.388 0 0 0-.785 3.478 1.2 1.2 0 0 1-1.173.955M289.891 248.594a1.202 1.202 0 0 1-1.187-1.385c.186-1.201.39-2.408.609-3.588a1.2 1.2 0 0 1 2.361.438c-.214 1.156-.415 2.34-.598 3.519a1.2 1.2 0 0 1-1.185 1.016M457.674 138.378c-.108 0-.22-.014-.327-.046-7.252-2.055-14.962-3.433-22.916-4.096a1.2 1.2 0 0 1 .2-2.395c8.107.676 15.97 2.084 23.37 4.18a1.202 1.202 0 0 1-.327 2.357M423.343 230.129c-4.09 0-8.199-.184-12.21-.547a1.202 1.202 0 0 1 .217-2.392c3.94.357 7.975.536 11.993.536 11.899 0 23.339-1.532 34.003-4.554a1.202 1.202 0 0 1 .655 2.31c-10.878 3.084-22.539 4.647-34.658 4.647M219.724 226.674c-.094 0-.188-.012-.283-.034a120.691 120.691 0 0 1-3.525-.907 1.202 1.202 0 0 1 .637-2.318c1.128.31 2.289.61 3.45.889a1.203 1.203 0 0 1-.28 2.37M234.947 229.322a1.24 1.24 0 0 1-.133-.008 128.58 128.58 0 0 1-6.626-.909 1.202 1.202 0 0 1 .388-2.37c2.135.35 4.323.65 6.503.893a1.2 1.2 0 0 1-.132 2.394zm14.698.806c-1.973 0-3.973-.042-5.944-.128a1.201 1.201 0 0 1-1.147-1.253c.03-.662.601-1.166 1.252-1.148 1.937.085 3.9.128 5.84.128h.03l.696-.002h.006a1.2 1.2 0 0 1 .008 2.402l-.709.001h-.032zM259.21 229.794a1.2 1.2 0 0 1-.084-2.4 127.09 127.09 0 0 0 3.556-.3 1.203 1.203 0 0 1 1.313 1.078 1.203 1.203 0 0 1-1.077 1.313c-1.198.118-2.417.221-3.622.306a1.509 1.509 0 0 1-.086.003M235.927 134.478a1.201 1.201 0 0 1-.121-2.395c1.195-.124 2.413-.233 3.621-.324a1.194 1.194 0 0 1 1.287 1.107 1.2 1.2 0 0 1-1.106 1.288c-1.186.09-2.383.197-3.556.318a1.048 1.048 0 0 1-.125.006M225.575 135.98a1.202 1.202 0 0 1-.221-2.382c1.467-.276 2.968-.53 4.463-.756a1.201 1.201 0 0 1 .358 2.375c-1.466.222-2.94.471-4.377.741-.074.015-.15.022-.223.022M216.244 138.128a1.202 1.202 0 0 1-.318-2.36c1.155-.316 2.341-.621 3.525-.907a1.201 1.201 0 0 1 .563 2.335c-1.16.28-2.322.579-3.451.889-.107.03-.214.043-.32.043M217.802 122.837c-.44 0-.863-.242-1.074-.663a103.453 103.453 0 0 1-1.577-3.284 1.2 1.2 0 1 1 2.182-1.001 101.312 101.312 0 0 0 1.541 3.208 1.202 1.202 0 0 1-1.072 1.74"/>
        <path fill="#FFF" d="M226.244 136.959c-.379 0-.752-.179-.985-.514a121.31 121.31 0 0 1-3.905-5.962 1.201 1.201 0 0 1 2.048-1.257c1.199 1.956 2.486 3.923 3.826 5.845a1.202 1.202 0 0 1-.984 1.888m10.267 12.86c-.327 0-.652-.133-.889-.395a133.192 133.192 0 0 1-4.643-5.399 1.202 1.202 0 0 1 1.863-1.517c1.456 1.79 2.99 3.574 4.558 5.302a1.202 1.202 0 0 1-.889 2.009M245.707 159.03c-.29 0-.578-.103-.807-.312a140.386 140.386 0 0 1-2.657-2.483 1.203 1.203 0 0 1 1.663-1.733c.856.82 1.733 1.64 2.608 2.438a1.2 1.2 0 0 1-.807 2.09M333.094 119.59c-.446 0-.875-.251-1.082-.68-.51-1.055-1.05-2.125-1.604-3.178a1.2 1.2 0 1 1 2.124-1.12 105.05 105.05 0 0 1 1.642 3.252 1.202 1.202 0 0 1-1.08 1.725M249.391 54.519a1.23 1.23 0 0 1-.122-.006 53.551 53.551 0 0 0-6.78-.267 1.188 1.188 0 0 1-1.232-1.17 1.2 1.2 0 0 1 1.17-1.232c2.288-.059 4.667.035 7.084.28a1.201 1.201 0 0 1-.12 2.395m-22.637 3.207a1.202 1.202 0 0 1-.512-2.288 36.069 36.069 0 0 1 6.767-2.375 1.2 1.2 0 1 1 .571 2.333 33.69 33.69 0 0 0-6.315 2.215c-.165.078-.34.115-.51.115m38.412.322c-.127 0-.257-.02-.384-.063a79.513 79.513 0 0 0-6.564-1.912 1.2 1.2 0 1 1 .568-2.334 82.015 82.015 0 0 1 6.764 1.97 1.201 1.201 0 0 1-.384 2.339m14.827 6.485c-.192 0-.386-.046-.567-.142a103.192 103.192 0 0 0-6.15-3.045 1.201 1.201 0 0 1 .99-2.188c2.093.95 4.21 1.996 6.296 3.116a1.202 1.202 0 0 1-.569 2.26M214.6 68.131a1.202 1.202 0 0 1-.997-1.87 30.813 30.813 0 0 1 4.68-5.483 1.202 1.202 0 0 1 1.63 1.764 28.319 28.319 0 0 0-4.314 5.055 1.198 1.198 0 0 1-.999.534m79.084 5.045c-.246 0-.494-.075-.707-.23a121.824 121.824 0 0 0-5.665-3.898 1.201 1.201 0 0 1 1.303-2.017 123.87 123.87 0 0 1 5.777 3.974 1.202 1.202 0 0 1-.708 2.17m12.453 10.352c-.294 0-.59-.107-.822-.326a132.703 132.703 0 0 0-5.133-4.583 1.202 1.202 0 0 1 1.552-1.833 134.988 134.988 0 0 1 5.226 4.666 1.201 1.201 0 0 1-.823 2.076m11.116 11.779a1.2 1.2 0 0 1-.923-.431 131.457 131.457 0 0 0-4.547-5.164 1.201 1.201 0 0 1 1.76-1.634 135.055 135.055 0 0 1 4.63 5.257 1.201 1.201 0 0 1-.92 1.972m9.57 13.06c-.397 0-.785-.196-1.014-.556a121.61 121.61 0 0 0-3.855-5.692 1.2 1.2 0 1 1 1.95-1.404 124.114 124.114 0 0 1 3.931 5.806 1.2 1.2 0 0 1-1.012 1.847M209.749 79.985a1.201 1.201 0 0 1-1.177-1.447c.257-1.23.57-2.44.931-3.6a1.201 1.201 0 0 1 2.293.715 36.432 36.432 0 0 0-.873 3.376 1.202 1.202 0 0 1-1.174.956M458.617 248.595c-.476 0-.926-.286-1.115-.754-5.474-13.641-14.598-27.086-26.388-38.88a132.054 132.054 0 0 0-12.926-11.358 1.201 1.201 0 0 1 1.461-1.907 134.533 134.533 0 0 1 13.162 11.567c12.017 12.02 21.326 25.744 26.92 39.682a1.202 1.202 0 0 1-1.114 1.65M429.167 309.714c-12.608 0-27.26-4.543-42.029-13.528a1.2 1.2 0 1 1 1.247-2.052c12.708 7.73 25.604 12.233 37.295 13.02 11.808.79 21.57-2.304 28.224-8.96a28.396 28.396 0 0 0 3.124-3.715 1.201 1.201 0 1 1 1.962 1.383 30.723 30.723 0 0 1-3.389 4.03c-6.565 6.57-15.769 9.822-26.434 9.822M342.116 248.593c-.427 0-.84-.227-1.057-.63a107.095 107.095 0 0 1-2.842-5.65 1.2 1.2 0 1 1 2.176-1.015 104.82 104.82 0 0 0 2.778 5.524 1.2 1.2 0 0 1-1.055 1.771M339.925 119.59a1.202 1.202 0 0 1-1.08-1.724c5.68-11.754 14.036-23.323 24.165-33.455 15.335-15.34 33.349-26.19 50.723-30.548 17.593-4.413 32.462-1.661 41.869 7.748 4.536 4.538 7.538 10.36 8.922 17.3a1.202 1.202 0 0 1-2.355.47c-1.289-6.466-4.07-11.874-8.265-16.071-8.786-8.789-22.843-11.318-39.587-7.118-16.96 4.255-34.578 14.88-49.61 29.917-9.94 9.945-18.135 21.288-23.7 32.803a1.2 1.2 0 0 1-1.082.678M429.033 157.437a1.2 1.2 0 0 1-.823-2.075 138.71 138.71 0 0 0 2.903-2.82c11.103-11.107 19.907-23.778 25.458-36.642a1.201 1.201 0 1 1 2.204.951c-5.67 13.14-14.649 26.07-25.964 37.39a137.63 137.63 0 0 1-2.955 2.87 1.197 1.197 0 0 1-.823.326M330.903 248.594a1.2 1.2 0 0 1-1.055-1.772c.99-1.831 1.925-3.69 2.778-5.524a1.202 1.202 0 0 1 2.177 1.015 107.089 107.089 0 0 1-2.843 5.651 1.2 1.2 0 0 1-1.057.63M217.252 299.177a1.2 1.2 0 0 1-.89-.396 30.946 30.946 0 0 1-2.34-2.93 1.201 1.201 0 0 1 1.964-1.382c.662.94 1.387 1.85 2.157 2.7a1.202 1.202 0 0 1-.891 2.008M268.333 304.72a1.2 1.2 0 0 1-.428-2.324 93.63 93.63 0 0 0 5.96-2.51 1.201 1.201 0 0 1 1.007 2.183 97.474 97.474 0 0 1-6.113 2.573 1.18 1.18 0 0 1-.426.079m-38.431 2.749a1.21 1.21 0 0 1-.399-.07 33.638 33.638 0 0 1-6.142-2.871 1.201 1.201 0 0 1 1.235-2.06 31.178 31.178 0 0 0 5.704 2.665 1.2 1.2 0 0 1 .734 1.531 1.2 1.2 0 0 1-1.132.805m23.725 1.339a1.202 1.202 0 0 1-.2-2.385 70.906 70.906 0 0 0 6.29-1.376 1.202 1.202 0 0 1 .617 2.322 73.046 73.046 0 0 1-6.504 1.422 1.212 1.212 0 0 1-.203.017m-9.841.868c-1.881 0-3.737-.102-5.516-.305a1.2 1.2 0 0 1-1.057-1.328 1.2 1.2 0 0 1 1.328-1.059c2.044.233 4.19.325 6.376.278.674-.03 1.213.51 1.227 1.171a1.199 1.199 0 0 1-1.172 1.229c-.397.01-.793.014-1.186.014M282.15 298.186a1.2 1.2 0 0 1-.592-2.246c1.023-.58 2.058-1.187 3.074-1.804a1.2 1.2 0 1 1 1.248 2.05 115.058 115.058 0 0 1-3.14 1.845c-.187.105-.39.155-.59.155M251.818 199.646a1.2 1.2 0 0 1-.754-2.137c.938-.754 1.9-1.507 2.864-2.238a1.2 1.2 0 1 1 1.452 1.913c-.946.718-1.891 1.456-2.81 2.197a1.195 1.195 0 0 1-.752.265M239.688 210.703a1.201 1.201 0 0 1-.862-2.038 136.929 136.929 0 0 1 5.079-4.964 1.2 1.2 0 1 1 1.633 1.76 133.39 133.39 0 0 0-4.989 4.878 1.195 1.195 0 0 1-.86.364m-10.695 12.454a1.201 1.201 0 0 1-.957-1.925 130.91 130.91 0 0 1 4.433-5.55 1.2 1.2 0 0 1 1.835 1.55 128.613 128.613 0 0 0-4.352 5.448 1.197 1.197 0 0 1-.959.477m-8.983 13.735a1.2 1.2 0 0 1-1.047-1.786 115.875 115.875 0 0 1 3.655-6.1 1.2 1.2 0 1 1 2.02 1.297 113.62 113.62 0 0 0-3.578 5.972c-.22.394-.629.617-1.05.617M214.403 248.595a1.201 1.201 0 0 1-1.113-1.65 95.161 95.161 0 0 1 1.422-3.358 1.2 1.2 0 1 1 2.193.978 95.455 95.455 0 0 0-1.387 3.276 1.2 1.2 0 0 1-1.115.754M595.329 169.2a1.201 1.201 0 0 1-.514-2.288 71.873 71.873 0 0 0 29.65-26.004c7.481-11.582 11.436-25.027 11.436-38.88 0-39.555-32.167-71.735-71.704-71.735a1.201 1.201 0 0 1 0-2.403c40.862 0 74.106 33.258 74.106 74.137 0 14.318-4.088 28.213-11.82 40.184a74.264 74.264 0 0 1-30.642 26.872 1.19 1.19 0 0 1-.512.116"/>
        <path fill="#FFF" d="M557.443 30.601a1.2 1.2 0 0 1-.11-2.397 75.364 75.364 0 0 1 6.856-.314c.67-.01 1.208.536 1.208 1.202a1.2 1.2 0 0 1-1.2 1.2h-.008c-2.212 0-4.445.103-6.635.304a1.263 1.263 0 0 1-.111.005m-16.408 3.45c-.502 0-.97-.318-1.14-.82-.209-.63.13-1.31.758-1.52a73.969 73.969 0 0 1 7.049-1.977 1.2 1.2 0 1 1 .531 2.343 71.562 71.562 0 0 0-6.817 1.911 1.194 1.194 0 0 1-.381.063m-15.171 7.126c-.402 0-.795-.202-1.021-.57a1.2 1.2 0 0 1 .388-1.653 74.347 74.347 0 0 1 6.402-3.541 1.2 1.2 0 0 1 1.056 2.158 71.69 71.69 0 0 0-6.194 3.425c-.197.122-.416.18-.631.18m-13.15 10.41a1.202 1.202 0 0 1-.848-2.052 74.663 74.663 0 0 1 5.429-4.909 1.2 1.2 0 1 1 1.52 1.859 72.92 72.92 0 0 0-5.254 4.75c-.234.234-.54.352-.847.352m-10.444 13.13a1.202 1.202 0 0 1-1.018-1.837 74.912 74.912 0 0 1 4.172-6.017 1.2 1.2 0 1 1 1.903 1.465 72.074 72.074 0 0 0-4.036 5.822c-.228.366-.62.567-1.021.567m-7.167 15.172a1.203 1.203 0 0 1-1.138-1.586 73.944 73.944 0 0 1 2.686-6.816 1.202 1.202 0 0 1 2.187.991 71.163 71.163 0 0 0-2.597 6.593 1.201 1.201 0 0 1-1.138.818M521.113 162.073c-.247 0-.496-.076-.71-.233a74.98 74.98 0 0 1-5.552-4.5 1.2 1.2 0 0 1 1.599-1.792 72.252 72.252 0 0 0 5.374 4.355 1.203 1.203 0 0 1-.711 2.17m14.574 8.304c-.157 0-.316-.03-.47-.095a74.255 74.255 0 0 1-6.586-3.198 1.2 1.2 0 0 1 1.154-2.106 71.923 71.923 0 0 0 6.372 3.093 1.2 1.2 0 0 1-.47 2.306M589.936 122.019a1.202 1.202 0 0 1-.969-1.91c3.854-5.275 5.89-11.527 5.89-18.081 0-16.915-13.754-30.675-30.66-30.675a1.201 1.201 0 0 1 0-2.403c18.23 0 33.062 14.838 33.062 33.078 0 7.067-2.196 13.81-6.353 19.498a1.2 1.2 0 0 1-.97.493M554.145 72.972a1.202 1.202 0 0 1-.378-2.342 33.015 33.015 0 0 1 5.165-1.263 1.201 1.201 0 1 1 .379 2.373c-1.62.259-3.232.652-4.787 1.17a1.196 1.196 0 0 1-.379.062m-13.851 9.178a1.2 1.2 0 0 1-.9-1.996 33.254 33.254 0 0 1 5.53-5.006 1.2 1.2 0 1 1 1.401 1.952 30.83 30.83 0 0 0-5.13 4.644c-.238.269-.568.406-.901.406M141.544 289.99a1.2 1.2 0 1 1 0-2.402c5.988 0 11.72-1.348 17.036-4.007a1.2 1.2 0 1 1 1.074 2.149c-5.653 2.827-11.745 4.26-18.11 4.26M180.838 248.597a1.201 1.201 0 0 1-1.198-1.14 38.072 38.072 0 0 0-1.72-9.55 1.2 1.2 0 1 1 2.29-.725 40.512 40.512 0 0 1 1.828 10.153 1.2 1.2 0 0 1-1.2 1.262M158.137 214.928a1.2 1.2 0 0 1-.507-.113c-5.053-2.355-10.465-3.55-16.085-3.55a1.2 1.2 0 1 1 0-2.402c5.972 0 11.725 1.27 17.099 3.774a1.2 1.2 0 0 1-.507 2.29"/>
        <path fill="#FFF" d="M135.574 211.715a1.2 1.2 0 0 1-.18-2.388 40.92 40.92 0 0 1 6.133-.464 1.186 1.186 0 0 1 1.218 1.202 1.2 1.2 0 0 1-1.2 1.2h-.019c-1.93 0-3.871.148-5.77.436-.061.01-.122.014-.182.014m-15.569 5.969a1.2 1.2 0 0 1-.659-2.206 40.493 40.493 0 0 1 6.543-3.48 1.201 1.201 0 0 1 .928 2.215 38.11 38.11 0 0 0-6.155 3.274 1.19 1.19 0 0 1-.657.197m-11.708 11.885a1.201 1.201 0 0 1-1.012-1.845 40.812 40.812 0 0 1 4.524-5.872 1.2 1.2 0 1 1 1.76 1.633 38.41 38.41 0 0 0-4.258 5.526 1.197 1.197 0 0 1-1.014.558m-5.73 15.667a1.202 1.202 0 0 1-1.19-1.365c.334-2.45.897-4.88 1.675-7.223a1.201 1.201 0 0 1 2.278.757 37.992 37.992 0 0 0-1.576 6.792 1.202 1.202 0 0 1-1.188 1.039m1.26 16.636a1.2 1.2 0 0 1-1.15-.86 40.53 40.53 0 0 1-1.452-7.27 1.201 1.201 0 0 1 2.389-.254 38.098 38.098 0 0 0 1.364 6.84 1.2 1.2 0 0 1-1.151 1.544m8.05 14.612c-.335 0-.668-.14-.906-.412a40.85 40.85 0 0 1-4.34-6.01 1.202 1.202 0 0 1 2.066-1.223 38.358 38.358 0 0 0 4.085 5.655 1.2 1.2 0 0 1-.905 1.99m13.365 9.98c-.166 0-.335-.034-.496-.108a40.502 40.502 0 0 1-6.436-3.681 1.202 1.202 0 0 1 1.378-1.968 38.153 38.153 0 0 0 6.054 3.464 1.2 1.2 0 0 1-.5 2.294m16.303 3.526c-2.477 0-4.96-.225-7.378-.67a1.201 1.201 0 0 1 .434-2.363 38.49 38.49 0 0 0 6.944.63 1.2 1.2 0 1 1 0 2.403M151.96 250.629h-20.83a1.2 1.2 0 1 1 0-2.403h20.83a1.202 1.202 0 0 1 0 2.403"/>
        <path fill="#FFF" d="M141.544 261.048a1.2 1.2 0 0 1-1.2-1.201v-20.839a1.201 1.201 0 1 1 2.401 0v20.839a1.2 1.2 0 0 1-1.2 1.2M673.845 249.68a1.2 1.2 0 1 1 0-2.403c13.216 0 23.97-10.757 23.97-23.979 0-13.223-10.754-23.98-23.97-23.98a1.2 1.2 0 1 1 0-2.402c14.54 0 26.37 11.834 26.37 26.382 0 14.546-11.83 26.381-26.37 26.381"/>
        <path fill="#FFF" d="M660.333 203.251a1.2 1.2 0 0 1-.646-2.213 26.086 26.086 0 0 1 9.303-3.676 1.202 1.202 0 0 1 .439 2.362 23.708 23.708 0 0 0-8.452 3.34c-.2.127-.423.187-.644.187M648.94 220.84a1.2 1.2 0 0 1-1.19-1.374 26.121 26.121 0 0 1 3.304-9.446 1.2 1.2 0 1 1 2.073 1.212 23.717 23.717 0 0 0-2.999 8.58 1.202 1.202 0 0 1-1.188 1.028m5.857 20.119c-.336 0-.67-.141-.908-.416a26.218 26.218 0 0 1-4.989-8.67 1.201 1.201 0 1 1 2.27-.78 23.832 23.832 0 0 0 4.535 7.878 1.203 1.203 0 0 1-.908 1.988m19.049 8.72c-3.394 0-6.698-.636-9.822-1.89a1.201 1.201 0 0 1 .895-2.23 23.856 23.856 0 0 0 8.927 1.718 1.2 1.2 0 0 1 0 2.402M680.507 224.499h-13.325a1.2 1.2 0 1 1 0-2.403h13.325a1.201 1.201 0 0 1 0 2.403"/>
        <path fill="#FFF" d="M673.845 231.164a1.2 1.2 0 0 1-1.201-1.201v-13.331a1.2 1.2 0 1 1 2.401 0v13.33a1.2 1.2 0 0 1-1.2 1.202M144.103 61.51h8.536l4.267-7.395-4.267-7.395h-8.536l-4.267 7.395 4.267 7.395zm9.09 1.922h-9.644a.959.959 0 0 1-.832-.481l-4.822-8.355a.958.958 0 0 1 0-.961l4.822-8.356a.959.959 0 0 1 .832-.481h9.644a.96.96 0 0 1 .833.48l4.822 8.357a.962.962 0 0 1 0 .96l-4.822 8.356a.96.96 0 0 1-.833.48zM144.103 81.768h8.536l4.267-7.395-4.267-7.395h-8.536l-4.267 7.395 4.267 7.395zm9.09 1.922h-9.644a.96.96 0 0 1-.832-.48l-4.822-8.356a.96.96 0 0 1 0-.962l4.822-8.355a.959.959 0 0 1 .832-.481h9.644a.96.96 0 0 1 .833.48l4.822 8.356a.963.963 0 0 1 0 .962l-4.822 8.356a.96.96 0 0 1-.833.48zM161.845 71.543h8.536l4.267-7.396-4.267-7.394h-8.536l-4.267 7.394 4.267 7.396zm9.091 1.921h-9.645a.96.96 0 0 1-.831-.48l-4.823-8.356a.962.962 0 0 1 0-.96l4.823-8.357a.958.958 0 0 1 .83-.48h9.646a.96.96 0 0 1 .832.48l4.822 8.356a.962.962 0 0 1 0 .961l-4.822 8.356a.96.96 0 0 1-.832.48zM81.578 87.969a3.335 3.335 0 0 0-3.33 3.332 3.335 3.335 0 0 0 3.33 3.331h23.518c2.67 0 4.841-2.172 4.841-4.842a4.847 4.847 0 0 0-4.84-4.843c-.79 0-1.543.185-2.24.549a1.2 1.2 0 0 1-1.721-1.352 5.856 5.856 0 0 0-5.676-7.257c-2.715 0-5.114 1.922-5.706 4.567a1.201 1.201 0 0 1-1.618.853 3.335 3.335 0 0 0-4.382 4.189 1.2 1.2 0 0 1-1.41 1.562 3.375 3.375 0 0 0-.766-.09m23.518 9.067H81.578a5.739 5.739 0 0 1-5.732-5.734 5.741 5.741 0 0 1 5.325-5.72 5.74 5.74 0 0 1 6.607-5.847c1.22-3.103 4.275-5.249 7.681-5.249 4.529 0 8.217 3.671 8.249 8.195.457-.09.922-.136 1.388-.136 3.994 0 7.243 3.25 7.243 7.246 0 3.995-3.25 7.245-7.243 7.245M475.121 318.75c-1.174 0-2.13.956-2.13 2.131 0 1.175.956 2.13 2.13 2.13 1.175 0 2.13-.955 2.13-2.13 0-1.175-.955-2.13-2.13-2.13m0 6.663a4.536 4.536 0 0 1-4.53-4.533c0-2.499 2.032-4.533 4.53-4.533 2.5 0 4.532 2.034 4.532 4.533 0 2.5-2.033 4.533-4.532 4.533M499.728 318.75c-1.175 0-2.13.956-2.13 2.131 0 1.175.955 2.13 2.13 2.13a2.132 2.132 0 0 0 0-4.26m0 6.663a4.536 4.536 0 0 1-4.53-4.533c0-2.499 2.032-4.533 4.53-4.533 2.499 0 4.531 2.034 4.531 4.533 0 2.5-2.032 4.533-4.531 4.533M486.092 305.423c-1.174 0-2.13.956-2.13 2.131 0 1.175.956 2.13 2.13 2.13 1.175 0 2.13-.955 2.13-2.13a2.134 2.134 0 0 0-2.13-2.131m0 6.664a4.537 4.537 0 0 1-4.53-4.533c0-2.5 2.032-4.534 4.53-4.534a4.538 4.538 0 0 1 4.531 4.534c0 2.5-2.032 4.533-4.53 4.533M510.7 305.423c-1.175 0-2.13.956-2.13 2.131 0 1.175.955 2.13 2.13 2.13 1.175 0 2.13-.955 2.13-2.13a2.133 2.133 0 0 0-2.13-2.131m0 6.664a4.537 4.537 0 0 1-4.531-4.533c0-2.5 2.032-4.534 4.53-4.534 2.5 0 4.531 2.034 4.531 4.534s-2.032 4.533-4.53 4.533"/>
        <path fill="#FFF" d="M477.391 319.325a1.201 1.201 0 0 1-.926-1.965l6.52-7.921a1.2 1.2 0 0 1 1.854 1.527l-6.52 7.92a1.2 1.2 0 0 1-.928.439M501.845 319.51a1.2 1.2 0 0 1-.926-1.964l6.674-8.107a1.201 1.201 0 0 1 1.854 1.526l-6.675 8.108a1.2 1.2 0 0 1-.927.437M497.098 319.51c-.303 0-.606-.113-.84-.341l-8.428-8.237a1.2 1.2 0 0 1 1.679-1.72l8.427 8.239a1.203 1.203 0 0 1-.838 2.06M411.996 334.995c-.312 0-.625-.122-.86-.363a9.595 9.595 0 0 0-6.927-2.93 9.6 9.6 0 0 0-6.93 2.93 1.201 1.201 0 0 1-1.719-1.676 11.983 11.983 0 0 1 8.649-3.655c3.28 0 6.351 1.298 8.648 3.655a1.202 1.202 0 0 1-.86 2.039"/>
        <path fill="#FFF" d="M416.785 330.204c-.31 0-.621-.12-.856-.359a16.32 16.32 0 0 0-11.72-4.914 16.32 16.32 0 0 0-11.721 4.914 1.2 1.2 0 1 1-1.712-1.684 18.703 18.703 0 0 1 13.433-5.632c5.089 0 9.859 2 13.432 5.632a1.2 1.2 0 0 1-.856 2.043M400.865 339.441a1.202 1.202 0 0 1-.874-2.024 5.815 5.815 0 0 1 4.218-1.828c1.587 0 3.124.666 4.217 1.828a1.2 1.2 0 1 1-1.749 1.646 3.359 3.359 0 0 0-2.468-1.072c-.942 0-1.82.38-2.47 1.072a1.193 1.193 0 0 1-.874.378M128.99 162.146h4.957c.127-.805.409-2.088 1.03-3.66.372-.94.852-1.757 1.316-2.546.849-1.447 1.583-2.695 1.583-4.465a6.404 6.404 0 0 0-6.396-6.398 6.404 6.404 0 0 0-6.395 6.398c0 1.495.769 2.933 1.584 4.457.437.819.89 1.665 1.241 2.557.63 1.608.935 2.872 1.08 3.657m5.813 1.922h-6.645a.96.96 0 0 1-.958-.897c-.001-.012-.123-1.548-1.078-3.98-.31-.786-.716-1.547-1.147-2.353-.89-1.665-1.811-3.387-1.811-5.363 0-4.588 3.73-8.32 8.316-8.32s8.317 3.732 8.317 8.32c0 2.292-.94 3.891-1.847 5.438-.447.76-.87 1.479-1.186 2.281-.925 2.339-1 3.934-1.002 3.95a.964.964 0 0 1-.96.924"/>
        <mask id="b" fill="#fff">
            <use xlink:href="#a"/>
        </mask>
        <path fill="#FFF" d="M129.178 168.792h4.604v-2.35h-4.604v2.35zm5.565 1.922h-6.526a.96.96 0 0 1-.96-.96v-4.274c0-.53.43-.96.96-.96h6.526c.531 0 .96.43.96.96v4.273c0 .531-.429.961-.96.961zM390.956 18.548h-5.464a.96.96 0 1 1 0-1.922h5.464a.96.96 0 0 1 0 1.922" mask="url(#b)"/>
        <path fill="#FFF" d="M388.224 21.28a.961.961 0 0 1-.961-.96v-5.467a.962.962 0 0 1 1.922 0v5.467c0 .53-.431.96-.96.96M410.05 27.23h-5.463a.96.96 0 1 1 0-1.922h5.463a.96.96 0 0 1 0 1.922" mask="url(#b)"/>
        <path fill="#FFF" d="M407.318 29.963a.96.96 0 0 1-.96-.96v-5.467a.961.961 0 0 1 1.921 0v5.466c0 .531-.43.961-.961.961M642.25 40.544h-5.464a.96.96 0 1 1 0-1.921h5.463a.961.961 0 1 1 0 1.921" mask="url(#b)"/>
        <path fill="#FFF" d="M639.517 43.277a.96.96 0 0 1-.96-.96V36.85a.961.961 0 0 1 1.922 0v5.466c0 .531-.431.961-.962.961M403.686 4.655h-5.464a.96.96 0 1 1 0-1.921h5.464a.96.96 0 0 1 0 1.921" mask="url(#b)"/>
        <path fill="#FFF" d="M400.954 7.388a.96.96 0 0 1-.96-.96V.96a.961.961 0 0 1 1.92 0v5.466c0 .53-.43.96-.96.96M73.294 200.714h-5.463a.96.96 0 1 1 0-1.923h5.463a.962.962 0 0 1 0 1.923" mask="url(#b)"/>
        <path fill="#FFF" d="M70.562 203.447c-.53 0-.96-.43-.96-.962v-5.465a.962.962 0 1 1 1.922 0v5.465c0 .532-.431.962-.962.962M88.339 213.448h-5.464a.96.96 0 1 1 0-1.922h5.464a.962.962 0 0 1 0 1.922" mask="url(#b)"/>
        <path fill="#FFF" d="M85.607 216.182c-.53 0-.96-.43-.96-.962v-5.465a.961.961 0 0 1 1.92 0v5.465c0 .532-.43.962-.96.962M85.446 190.873h-5.464a.96.96 0 1 1 0-1.922h5.464a.96.96 0 0 1 0 1.922" mask="url(#b)"/>
        <path fill="#FFF" d="M82.714 193.606a.96.96 0 0 1-.96-.96v-5.467a.961.961 0 0 1 1.92 0v5.466c0 .531-.43.961-.96.961M713.825 174.26h-5.464a.96.96 0 0 1 0-1.922h5.464a.961.961 0 0 1 0 1.922" mask="url(#b)"/>
        <path fill="#FFF" d="M711.093 176.993c-.53 0-.96-.43-.96-.961v-5.466a.962.962 0 1 1 1.92 0v5.466c0 .531-.43.961-.96.961M728.87 186.995h-5.465a.96.96 0 1 1 0-1.923h5.464a.962.962 0 0 1 0 1.923" mask="url(#b)"/>
        <path fill="#FFF" d="M726.137 189.728c-.53 0-.96-.43-.96-.962v-5.465a.962.962 0 1 1 1.92 0v5.465c0 .532-.43.962-.96.962M725.975 158.631h-5.463a.96.96 0 0 1 0-1.922h5.463a.962.962 0 0 1 0 1.922" mask="url(#b)"/>
        <path fill="#FFF" d="M723.244 161.363a.961.961 0 0 1-.961-.96v-5.467a.962.962 0 0 1 1.922 0v5.467c0 .53-.431.96-.96.96M610.11 245.178a1.42 1.42 0 0 0 0 2.838 1.42 1.42 0 0 0 0-2.837m0 4.758a3.343 3.343 0 0 1-3.34-3.34 3.343 3.343 0 0 1 3.34-3.341 3.343 3.343 0 0 1 3.339 3.341 3.343 3.343 0 0 1-3.34 3.34" mask="url(#b)"/>
        <path fill="#FFF" d="M615.462 247.557h-2.975a.96.96 0 0 1 0-1.921h2.975a.96.96 0 0 1 0 1.921M607.466 247.557h-2.709a.961.961 0 1 1 0-1.921h2.71a.961.961 0 0 1 0 1.921M610.11 252.912a.96.96 0 0 1-.96-.96v-2.977a.961.961 0 0 1 1.92 0v2.977c0 .53-.43.96-.96.96M610.11 245.18c-.53 0-.96-.43-.96-.962v-2.976a.961.961 0 0 1 1.92 0v2.976c0 .531-.43.961-.96.961M713.914 129.986a1.42 1.42 0 0 0 0 2.837 1.42 1.42 0 0 0 0-2.837m0 4.759a3.344 3.344 0 0 1-3.34-3.34 3.344 3.344 0 0 1 3.34-3.34 3.344 3.344 0 0 1 3.339 3.34 3.344 3.344 0 0 1-3.34 3.34" mask="url(#b)"/>
        <path fill="#FFF" d="M719.266 132.365h-2.975a.96.96 0 0 1 0-1.921h2.975a.96.96 0 0 1 0 1.921M711.533 132.365h-2.972a.96.96 0 1 1 0-1.921h2.972a.96.96 0 0 1 0 1.921M713.914 137.72a.961.961 0 0 1-.961-.961v-2.974a.962.962 0 0 1 1.921 0v2.974c0 .53-.43.96-.96.96M713.914 129.987a.961.961 0 0 1-.961-.96v-2.977a.961.961 0 0 1 1.921 0v2.976c0 .53-.43.96-.96.96M620.959 261.113a.97.97 0 0 0-.97.969.97.97 0 0 0 1.938 0 .97.97 0 0 0-.968-.97m0 3.86a2.893 2.893 0 0 1-2.89-2.89 2.893 2.893 0 0 1 2.89-2.892 2.894 2.894 0 0 1 2.889 2.892 2.893 2.893 0 0 1-2.89 2.89" mask="url(#b)"/>
        <path fill="#FFF" d="M625.298 263.042h-2.411a.96.96 0 1 1 0-1.922h2.411a.962.962 0 0 1 0 1.922M618.78 263.042h-2.161a.96.96 0 0 1 0-1.922h2.162a.962.962 0 0 1 0 1.922M620.959 267.384a.96.96 0 0 1-.96-.961v-2.416a.96.96 0 0 1 1.92 0v2.416c0 .53-.43.96-.96.96M620.959 261.114a.96.96 0 0 1-.96-.961v-2.413a.961.961 0 1 1 1.92 0v2.413c0 .53-.43.96-.96.96M742.7 166.76a.97.97 0 0 0 0 1.936.97.97 0 0 0 0-1.937m0 3.86a2.893 2.893 0 0 1-2.889-2.891 2.893 2.893 0 0 1 2.89-2.891 2.893 2.893 0 0 1 2.888 2.89 2.893 2.893 0 0 1-2.889 2.891" mask="url(#b)"/>
        <path fill="#FFF" d="M747.04 168.688h-2.412a.96.96 0 1 1 0-1.922h2.412a.961.961 0 0 1 0 1.922M740.775 168.688h-2.414a.96.96 0 1 1 0-1.922h2.414a.961.961 0 0 1 0 1.922M742.7 173.03a.961.961 0 0 1-.961-.96v-2.411a.961.961 0 0 1 1.922 0v2.41c0 .531-.431.961-.96.961M742.7 166.76a.961.961 0 0 1-.961-.96v-2.414a.961.961 0 0 1 1.922 0v2.413c0 .531-.431.961-.96.961M656.66 86.298a.97.97 0 0 0-.97.968.97.97 0 1 0 .969-.968m0 3.859a2.893 2.893 0 0 1-2.888-2.89 2.893 2.893 0 0 1 2.888-2.89 2.893 2.893 0 0 1 2.889 2.89 2.893 2.893 0 0 1-2.889 2.89" mask="url(#b)"/>
        <path fill="#FFF" d="M660.999 88.228h-2.411a.96.96 0 1 1 0-1.922h2.41a.96.96 0 0 1 0 1.922M654.73 88.228h-2.41a.96.96 0 0 1 0-1.922h2.41a.961.961 0 1 1 0 1.922M656.66 92.569a.96.96 0 0 1-.961-.96v-2.413a.961.961 0 0 1 1.92 0v2.412c0 .531-.43.961-.96.961M656.66 86.298a.96.96 0 0 1-.961-.96v-2.413a.96.96 0 0 1 1.92 0v2.412c0 .531-.43.961-.96.961M671.588 52.29c-.664 0-1.201-.539-1.201-1.202v-7.525a1.2 1.2 0 1 1 2.401 0v7.525c0 .663-.537 1.201-1.2 1.201M671.588 73.707a1.2 1.2 0 0 1-1.201-1.201V64.98a1.2 1.2 0 1 1 2.401 0v7.525a1.2 1.2 0 0 1-1.2 1.2M664.645 59.235h-7.523a1.201 1.201 0 0 1 0-2.402h7.523a1.201 1.201 0 0 1 0 2.402M686.054 59.235h-7.523a1.201 1.201 0 0 1 0-2.402h7.523a1.201 1.201 0 0 1 0 2.402M666.678 54.323c-.307 0-.615-.117-.848-.352l-5.32-5.32a1.2 1.2 0 1 1 1.699-1.698l5.318 5.32a1.2 1.2 0 0 1-.85 2.05M681.817 69.468c-.308 0-.615-.117-.85-.352l-5.319-5.321a1.202 1.202 0 0 1 1.699-1.698l5.318 5.32a1.202 1.202 0 0 1-.848 2.051M661.36 69.468a1.2 1.2 0 0 1-.849-2.05l5.318-5.321a1.2 1.2 0 1 1 1.698 1.698l-5.319 5.321a1.197 1.197 0 0 1-.849.352M676.497 54.323a1.202 1.202 0 0 1-.849-2.05l5.32-5.32a1.2 1.2 0 1 1 1.698 1.697l-5.32 5.321a1.196 1.196 0 0 1-.849.352M465.896 24.545a.841.841 0 0 0-.84.84v29.11c0 .464.377.842.84.842h14.89c.465 0 .841-.378.841-.841v-29.11a.84.84 0 0 0-.84-.84h-14.891zm14.89 32.713h-14.89a2.765 2.765 0 0 1-2.761-2.762v-29.11a2.764 2.764 0 0 1 2.76-2.762h14.892a2.764 2.764 0 0 1 2.76 2.762v29.11a2.764 2.764 0 0 1-2.76 2.762z" mask="url(#b)"/>
        <path fill="#FFF" d="M482.588 29.831h-18.493a.96.96 0 0 1 0-1.922h18.493a.96.96 0 0 1 0 1.922M475.543 27.188h-4.403a.96.96 0 1 1 0-1.921h4.403a.96.96 0 0 1 0 1.921M482.588 50.974h-18.493a.96.96 0 0 1 0-1.921h18.493a.96.96 0 1 1 0 1.921M473.341 53.017a.08.08 0 0 0-.08.08c0 .088.16.088.16 0a.08.08 0 0 0-.08-.08m0 1.922a1.843 1.843 0 0 1-1.84-1.842c0-1.015.826-1.842 1.84-1.842 1.016 0 1.842.827 1.842 1.842a1.843 1.843 0 0 1-1.842 1.842M264.841 343.522l2.31 1.416 12.903-21.065-2.31-1.416-12.903 21.065zm2.625 3.698a.955.955 0 0 1-.5-.142l-3.948-2.419a.964.964 0 0 1-.316-1.321l13.907-22.704a.96.96 0 0 1 1.32-.317l3.947 2.42a.961.961 0 0 1 .317 1.32l-13.907 22.704a.957.957 0 0 1-.82.46z" mask="url(#b)"/>
        <path fill="#FFF" d="M263.926 345.894l-.406 2.378 1.933-1.441-1.527-.937zm-1.758 5.546a.96.96 0 0 1-.946-1.122l1.05-6.147a.96.96 0 0 1 1.448-.656l3.947 2.42a.957.957 0 0 1 .072 1.589l-4.997 3.725a.956.956 0 0 1-.574.19zM278.748 320.82l2.31 1.415 1.247-2.038a.32.32 0 0 0-.105-.44l-1.765-1.08a.308.308 0 0 0-.24-.04.312.312 0 0 0-.198.145l-1.249 2.037zm2.626 3.697a.948.948 0 0 1-.501-.142l-3.948-2.42a.964.964 0 0 1-.316-1.321l1.75-2.857c.312-.51.805-.868 1.387-1.008a2.232 2.232 0 0 1 1.693.269l1.765 1.081c.51.313.868.805 1.008 1.388a2.23 2.23 0 0 1-.269 1.694l-1.75 2.857a.958.958 0 0 1-.82.459zM617.203 202.083h.005-.005zm-3.255-3.289c-1.063 0-2.038.71-2.327 1.785a2.396 2.396 0 0 0 .238 1.829c.322.559.841.958 1.463 1.127a2.415 2.415 0 0 0 2.953-1.702 2.416 2.416 0 0 0-2.327-3.039zm-.002 6.745c-.372 0-.749-.048-1.125-.15a4.303 4.303 0 0 1-2.627-2.022 4.302 4.302 0 0 1-.428-3.288 4.337 4.337 0 0 1 5.308-3.057 4.339 4.339 0 0 1 3.056 5.311 4.34 4.34 0 0 1-4.184 3.206zM614.407 183.514c-.223 0-.442.058-.64.172a1.288 1.288 0 0 0 .307 2.358 1.284 1.284 0 0 0 1.577-.908 1.284 1.284 0 0 0-.908-1.577 1.276 1.276 0 0 0-.336-.045m.007 4.497a3.194 3.194 0 0 1-2.785-1.609 3.192 3.192 0 0 1-.317-2.435 3.18 3.18 0 0 1 1.497-1.946 3.177 3.177 0 0 1 2.434-.318 3.182 3.182 0 0 1 1.946 1.497 3.19 3.19 0 0 1 .317 2.436 3.187 3.187 0 0 1-1.497 1.946c-.493.285-1.04.43-1.595.43M626.625 195.187a1.29 1.29 0 0 0-1.242.952 1.288 1.288 0 0 0 .908 1.577 1.287 1.287 0 1 0 .335-2.529m.004 4.497c-.28 0-.562-.036-.84-.111a3.191 3.191 0 0 1-1.945-1.498 3.19 3.19 0 0 1-.317-2.436 3.187 3.187 0 0 1 1.497-1.946 3.184 3.184 0 0 1 2.434-.317 3.186 3.186 0 0 1 1.946 1.497c.427.743.54 1.607.317 2.435a3.188 3.188 0 0 1-1.497 1.946c-.492.285-1.04.43-1.595.43M618.408 215.323c-.222 0-.441.057-.639.171a1.288 1.288 0 0 0 .308 2.358 1.285 1.285 0 0 0 1.576-.907 1.289 1.289 0 0 0-1.245-1.622m.008 4.497c-.28 0-.562-.037-.84-.112a3.19 3.19 0 0 1-1.945-1.497 3.188 3.188 0 0 1-.317-2.435 3.18 3.18 0 0 1 1.497-1.947 3.18 3.18 0 0 1 2.435-.317 3.186 3.186 0 0 1 1.945 1.496c.427.743.54 1.609.317 2.436a3.187 3.187 0 0 1-1.497 1.947c-.493.284-1.04.429-1.595.429M630.073 183.668h.004-.004zm-2.386-2.156a1.512 1.512 0 0 0-.394 2.972 1.511 1.511 0 1 0 .394-2.972zm-.001 4.946a3.438 3.438 0 0 1-3.314-4.327 3.436 3.436 0 0 1 4.208-2.422 3.44 3.44 0 0 1 2.421 4.21 3.44 3.44 0 0 1-3.315 2.539zM593.152 204.333a1.513 1.513 0 0 0-.393 2.972 1.512 1.512 0 1 0 .393-2.972m-.002 4.946a3.418 3.418 0 0 1-2.974-1.72 3.414 3.414 0 0 1-.34-2.606 3.438 3.438 0 0 1 4.208-2.423 3.416 3.416 0 0 1 2.083 1.603c.457.795.577 1.72.34 2.606a3.44 3.44 0 0 1-3.317 2.54" mask="url(#b)"/>
        <path fill="#FFF" d="M613.909 198.795l-.037-.001a.96.96 0 0 1-.923-.998l.404-10.534c.02-.53.455-.961.997-.923a.96.96 0 0 1 .922.997l-.404 10.535a.96.96 0 0 1-.96.924M617.32 200.666a.96.96 0 0 1-.316-1.869l7.058-2.451a.962.962 0 0 1 .63 1.816l-7.057 2.451a.962.962 0 0 1-.315.053M617.748 215.324a.96.96 0 0 1-.92-.689l-2.885-9.785a.96.96 0 1 1 1.843-.543l2.883 9.785a.96.96 0 0 1-.92 1.232M595.623 206.273a.961.961 0 0 1-.224-1.895l14.953-3.607a.96.96 0 1 1 .45 1.868l-14.954 3.608c-.074.017-.15.026-.225.026M615.953 199.078a.961.961 0 0 1-.761-1.547l10.152-13.195a.963.963 0 0 1 1.347-.176c.42.325.499.928.176 1.349l-10.152 13.194a.959.959 0 0 1-.762.375M284.434 14.374h-67.288a1.2 1.2 0 1 1 0-2.402h67.288a1.201 1.201 0 0 1 0 2.402M209.01 14.374h-6.103a1.2 1.2 0 1 1 0-2.402h6.102a1.201 1.201 0 0 1 0 2.402M680.209 307.855h-111.61a1.2 1.2 0 1 1 0-2.403h111.61a1.201 1.201 0 0 1 0 2.403M560.462 307.855h-6.102a1.2 1.2 0 1 1 0-2.403h6.102a1.201 1.201 0 0 1 0 2.403M704.51 326.957h-98.78a1.2 1.2 0 1 1 0-2.402h98.78a1.201 1.201 0 0 1 0 2.402M598.528 326.957h-5.401a1.2 1.2 0 1 1 0-2.402h5.4a1.201 1.201 0 0 1 0 2.402M636.813 337.376h-98.78a1.2 1.2 0 1 1 0-2.402h98.78a1.201 1.201 0 0 1 0 2.402M530.83 337.376h-5.401a1.2 1.2 0 1 1 0-2.402h5.4a1.202 1.202 0 0 1 0 2.402M253.19 28.267H185.9a1.2 1.2 0 1 1 0-2.403h67.288a1.201 1.201 0 0 1 0 2.403M177.764 28.267h-6.102a1.2 1.2 0 1 1 0-2.403h6.102a1.201 1.201 0 0 1 0 2.403M89.44 157.93H33.997a1.201 1.201 0 0 1 0-2.402H89.44a1.201 1.201 0 0 1 0 2.403M28.13 157.93h-4.4a1.2 1.2 0 1 1 0-2.402h4.4a1.201 1.201 0 0 1 0 2.403M82.497 132.46H27.053a1.201 1.201 0 0 1 0-2.402h55.444a1.201 1.201 0 0 1 0 2.403M21.187 132.46h-4.4a1.2 1.2 0 1 1 0-2.402h4.4a1.201 1.201 0 0 1 0 2.403M66.91 144.038H11.469a1.2 1.2 0 1 1 0-2.403H66.91a1.201 1.201 0 0 1 0 2.403M5.6 144.038H1.2a1.201 1.201 0 0 1 0-2.403h4.4a1.201 1.201 0 0 1 0 2.403M662.51 138.156a3.335 3.335 0 0 0-3.33 3.332 3.335 3.335 0 0 0 3.33 3.332h23.519a4.848 4.848 0 0 0 4.841-4.844 4.847 4.847 0 0 0-4.841-4.842c-.788 0-1.542.184-2.24.549a1.199 1.199 0 0 1-1.72-1.352 5.855 5.855 0 0 0-5.676-7.256c-2.715 0-5.114 1.92-5.706 4.566a1.201 1.201 0 0 1-1.619.852 3.335 3.335 0 0 0-4.381 4.189c.144.413.052.874-.243 1.199-.293.325-.74.466-1.166.364a3.388 3.388 0 0 0-.768-.09m23.519 9.066H662.51a5.739 5.739 0 0 1-5.731-5.733 5.74 5.74 0 0 1 5.325-5.72 5.74 5.74 0 0 1 6.607-5.848c1.22-3.102 4.275-5.247 7.68-5.247 4.53 0 8.218 3.67 8.25 8.194.456-.09.921-.136 1.388-.136 3.993 0 7.243 3.25 7.243 7.245s-3.25 7.245-7.243 7.245" mask="url(#b)"/>
        <path fill="#FFF" d="M680.979 150.674h-6.402a1.202 1.202 0 0 1-1.165-1.492l.863-3.453a1.2 1.2 0 1 1 2.33.583l-.49 1.96h4.864a1.201 1.201 0 0 1 0 2.402M668.175 154.333a1.2 1.2 0 0 1-1.017-1.837l4.444-7.112a1.201 1.201 0 0 1 2.036 1.273l-4.443 7.112a1.2 1.2 0 0 1-1.02.564" mask="url(#b)"/>
        <path fill="#FFF" d="M671.833 165.311a1.2 1.2 0 0 1-1.164-1.493l2.37-9.485h-4.863a1.2 1.2 0 1 1 0-2.402h6.402a1.2 1.2 0 0 1 1.164 1.493l-.902 3.608 5.12-8.196a1.201 1.201 0 0 1 2.037 1.274l-9.145 14.637a1.2 1.2 0 0 1-1.019.564M542.505 188.39c-.311.387-.776.61-1.275.61a1.63 1.63 0 0 1-1.626-1.459 1.624 1.624 0 0 1 .352-1.202c4.427-5.51 6.672-14.48 6.672-26.661 0-11.274-2.089-19.54-6.208-24.57a16.98 16.98 0 0 0-3.6-3.288c3.76 5.384 5.668 13.575 5.668 24.391 0 12.563-2.366 21.877-7.034 27.686-4.5 5.601-11.609 8.324-21.733 8.324h-4.038v-69.26h6.606c5.076 0 9.331.798 12.834 2.418 5.936 1.065 10.497 3.592 13.826 7.654 4.613 5.63 6.95 14.595 6.95 26.645 0 12.945-2.488 22.606-7.394 28.711m28.064-86.146c-12.916-12.146-31.307-18.304-54.66-18.304h-48.126a4.333 4.333 0 0 0-4.333 4.334v139.11a4.33 4.33 0 0 0 4.21 4.328 5.973 5.973 0 0 1-.069-.86V91.74c0-.903.734-1.637 1.636-1.637.901 0 1.634.734 1.634 1.636v139.11c0 .304.054.595.146.868h41.764c24.21 0 43.359-6.757 56.917-20.083 13.576-13.348 20.46-32.443 20.46-56.756 0-22.71-6.587-40.419-19.579-52.636M534.62 267.56h-1.79v11.13h1.516c3.89 0 5.703-1.802 5.703-5.666 0-1.856-.45-3.244-1.34-4.128-.891-.886-2.267-1.335-4.09-1.335M324.891 267.419c-1.485 0-2.583.453-3.36 1.386-.809.972-1.218 2.418-1.218 4.3 0 1.892.406 3.35 1.208 4.331.765.94 1.861 1.395 3.35 1.395 1.503 0 2.603-.453 3.366-1.381.798-.972 1.202-2.433 1.202-4.345 0-1.904-.403-3.355-1.199-4.317-.763-.921-1.859-1.37-3.349-1.37M361.056 273.435h2.574l-1.266-3.353zM280.87 273.435h2.575l-1.266-3.353z" mask="url(#b)"/>
        <path fill="#FFF" d="M575.975 266.158l-4.825 8.889v5.492a.94.94 0 0 1-.938.94h-1.065a.94.94 0 0 1-.938-.94v-5.412l-4.845-8.972a.944.944 0 0 1 .02-.925.942.942 0 0 1 .805-.458h1.186c.347 0 .665.19.828.497l3.494 6.563 3.511-6.565a.935.935 0 0 1 .827-.495h1.115c.33 0 .637.174.807.458a.947.947 0 0 1 .018.928zm-15.164 14.91a.938.938 0 0 1-.775.41h-1.165a.932.932 0 0 1-.874-.595l-1.825-4.639h-4.746l-1.834 4.64a.932.932 0 0 1-.872.594h-1.146a.936.936 0 0 1-.87-1.287l5.962-14.892a.936.936 0 0 1 .871-.589h.658c.389 0 .731.234.873.596l5.84 14.89a.934.934 0 0 1-.097.873zm-20-1.768c-1.48 1.445-3.635 2.178-6.405 2.178h-3.548a.939.939 0 0 1-.938-.939v-14.83c0-.517.42-.937.938-.937h4.005c2.614 0 4.654.718 6.064 2.131 1.409 1.415 2.124 3.46 2.124 6.08 0 2.74-.754 4.864-2.24 6.317zm-27.567 1.092c-1.074.856-2.49 1.29-4.208 1.29-1.954 0-3.434-.22-4.526-.67a.937.937 0 0 1-.58-.867v-1.036a.936.936 0 0 1 1.304-.864c.946.403 2.199.607 3.72.607.996 0 1.776-.215 2.318-.639.484-.379.71-.842.71-1.457 0-.376-.07-.674-.207-.888-.151-.234-.438-.476-.831-.7-.48-.274-1.216-.58-2.192-.911-1.675-.577-2.824-1.209-3.513-1.93-.747-.783-1.127-1.814-1.127-3.067 0-1.402.557-2.56 1.653-3.445 1.036-.834 2.361-1.257 3.94-1.257 1.513 0 2.96.292 4.295.868a.941.941 0 0 1 .493 1.226l-.375.892a.937.937 0 0 1-1.225.502c-1.112-.464-2.176-.699-3.168-.699-.875 0-1.562.19-2.039.562-.418.328-.614.75-.614 1.331 0 .374.062.681.178.886.12.212.34.419.657.613.393.246 1.118.557 2.15.923 1.234.426 2.151.837 2.803 1.257.708.458 1.24 1 1.582 1.609.344.617.52 1.353.52 2.188 0 1.532-.578 2.768-1.718 3.676zm-13.047-14.224c-.516 1.827-1.127 3.514-1.813 5.014a.94.94 0 0 1-.853.548h-.659a.94.94 0 0 1-.898-1.21c.188-.623.39-1.423.6-2.38.211-.962.374-1.826.486-2.57.069-.462.46-.798.927-.798h1.186c.328 0 .636.174.804.453l.122.204c.132.221.168.49.098.74zm-8.933 14.371a.94.94 0 0 1-.939.94h-1.044a.935.935 0 0 1-.78-.418l-7.025-10.534.002.397v9.615a.94.94 0 0 1-.937.94h-.994a.94.94 0 0 1-.938-.94v-14.83c0-.517.42-.937.938-.937h1.034c.315 0 .607.156.78.417l7.024 10.527-.001-.33v-9.676c0-.518.42-.938.937-.938h1.004c.518 0 .939.42.939.938v14.83zm-18.289-13.876a.94.94 0 0 1-.938.939h-6.13v3.733h5.735c.517 0 .938.42.938.937v.954a.94.94 0 0 1-.938.938h-5.734v4.484h6.129a.94.94 0 0 1 .938.938v.953a.94.94 0 0 1-.938.94h-8.102a.94.94 0 0 1-.937-.94v-14.83c0-.517.42-.937.937-.937h8.102c.518 0 .938.42.938.938v.953zm-16.443 13.876a.94.94 0 0 1-.937.94h-1.045a.939.939 0 0 1-.937-.94v-8.766l-3.7 9.12a.933.933 0 0 1-.869.585h-.658a.933.933 0 0 1-.87-.587l-3.72-9.215v8.863a.94.94 0 0 1-.937.94h-.994a.939.939 0 0 1-.937-.94v-14.83c0-.517.42-.937.937-.937h1.602c.385 0 .726.23.87.586l4.414 10.962 4.412-10.962a.934.934 0 0 1 .87-.586h1.562c.517 0 .937.42.937.938v14.83zm-23.28-1.24c-1.356 1.581-3.233 2.383-5.577 2.383-2.339 0-4.212-.802-5.569-2.382-1.322-1.538-1.991-3.629-1.991-6.216 0-2.582.677-4.665 2.012-6.191 1.367-1.563 3.24-2.355 5.567-2.355 2.344 0 4.218.797 5.57 2.371 1.313 1.531 1.98 3.616 1.98 6.196 0 2.573-.67 4.657-1.991 6.195zm-17.274-13.34l-4.097 14.83a.941.941 0 0 1-.904.69h-.852a.942.942 0 0 1-.902-.682l-2.919-10.265a3355.58 3355.58 0 0 1-2.87 10.262.942.942 0 0 1-.904.684h-.87a.94.94 0 0 1-.905-.69l-4.076-14.829a.94.94 0 0 1 .904-1.187h1.084a.94.94 0 0 1 .906.691l2.563 9.46.131-.47 2.535-8.998a.942.942 0 0 1 .903-.683h1.146c.416 0 .787.279.902.678l2.777 9.658c.525-1.959 1.407-5.24 2.594-9.644a.94.94 0 0 1 .905-.692h1.045c.291 0 .57.138.747.37a.942.942 0 0 1 .157.818zm-32.131 14.58a.94.94 0 0 1-.938.94h-8.101a.94.94 0 0 1-.939-.94v-14.83c0-.517.421-.937.939-.937h1.033c.518 0 .938.42.938.938v12.918h6.13a.94.94 0 0 1 .938.938v.973zm-14.517.53a.938.938 0 0 1-.774.41h-1.168a.932.932 0 0 1-.872-.596l-1.824-4.639h-4.748l-1.833 4.64a.932.932 0 0 1-.872.594h-1.146a.938.938 0 0 1-.87-1.286l5.962-14.893a.936.936 0 0 1 .87-.589h.658c.39 0 .732.234.874.596l5.84 14.89a.936.936 0 0 1-.097.873zm-18.55-.53a.94.94 0 0 1-.938.94h-1.045a.937.937 0 0 1-.78-.418l-7.026-10.534c.003.14.003.274.003.397v9.615a.94.94 0 0 1-.938.94h-.993a.94.94 0 0 1-.938-.94v-14.83a.94.94 0 0 1 .938-.937h1.034c.314 0 .606.156.78.417l7.024 10.527-.002-.33v-9.676a.94.94 0 0 1 .939-.938h1.004a.94.94 0 0 1 .938.938v14.83zm-20.33-1.24c-1.358 1.581-3.235 2.383-5.58 2.383-2.337 0-4.21-.802-5.568-2.382-1.321-1.538-1.99-3.63-1.99-6.216 0-2.582.676-4.665 2.012-6.191 1.367-1.563 3.24-2.355 5.567-2.355 2.345 0 4.218.797 5.569 2.371 1.314 1.531 1.98 3.616 1.98 6.196 0 2.573-.67 4.657-1.99 6.195zm-18.823 1.24c0 .518-.42.94-.937.94h-1.035a.94.94 0 0 1-.938-.94v-14.83c0-.517.42-.937.938-.937h1.035c.517 0 .937.42.937.938v14.83zm-7.387-13.855c0 .516-.42.937-.938.937h-3.88v12.918c0 .518-.419.94-.937.94h-1.044a.94.94 0 0 1-.938-.94v-12.918h-3.879a.939.939 0 0 1-.937-.937v-.974c0-.518.42-.938.937-.938h10.678c.517 0 .938.42.938.938v.974zm-15.096 14.385a.937.937 0 0 1-.774.41h-1.167a.929.929 0 0 1-.872-.596l-1.825-4.639h-4.747l-1.833 4.64a.932.932 0 0 1-.873.594h-1.145a.938.938 0 0 1-.871-1.286L281 265.299a.934.934 0 0 1 .87-.589h.659c.388 0 .73.234.873.596l5.84 14.89a.938.938 0 0 1-.098.873zm-18.55-.53a.94.94 0 0 1-.938.94h-1.045a.937.937 0 0 1-.78-.418l-7.025-10.534.003.397v9.615c0 .518-.42.94-.937.94h-.994a.94.94 0 0 1-.939-.94v-14.83c0-.517.421-.937.939-.937h1.035c.313 0 .605.156.78.417l7.022 10.527V265.71c0-.518.42-.938.937-.938h1.004c.517 0 .938.42.938.938v14.83zm-17.62.465a.939.939 0 0 1-.815.474h-1.237a.94.94 0 0 1-.807-.46l-3.55-6.001h-2.209v5.522a.94.94 0 0 1-.938.94h-1.033a.94.94 0 0 1-.939-.94v-14.83c0-.517.421-.937.939-.937h3.528c2.072 0 3.592.398 4.649 1.215 1.117.863 1.683 2.145 1.683 3.811 0 1.2-.33 2.239-.979 3.086-.438.571-1.026 1.036-1.752 1.385l3.45 5.791a.94.94 0 0 1 .01.944zm-17.161-14.341a.94.94 0 0 1-.939.939h-6.128v3.733h5.734c.517 0 .936.42.936.937v.954c0 .517-.42.938-.936.938h-5.734v4.484h6.128a.94.94 0 0 1 .939.938v.953a.94.94 0 0 1-.939.94h-8.101a.94.94 0 0 1-.938-.94v-14.83c0-.517.42-.937.938-.937h8.101c.518 0 .939.42.939.938v.953zm-14.456.021c0 .516-.42.937-.937.937h-3.88v12.918a.94.94 0 0 1-.937.94h-1.044a.94.94 0 0 1-.939-.94v-12.918h-3.878a.939.939 0 0 1-.938-.937v-.974c0-.518.421-.938.938-.938h10.678c.516 0 .937.42.937.938v.974zm-17.03 13.855a.94.94 0 0 1-.938.94h-1.045a.935.935 0 0 1-.78-.418l-7.024-10.534.002.397v9.615a.94.94 0 0 1-.938.94h-.994a.94.94 0 0 1-.938-.94v-14.83c0-.517.421-.937.938-.937h1.035c.314 0 .606.156.78.417l7.023 10.527V265.71c0-.518.42-.938.937-.938h1.004c.516 0 .938.42.938.938v14.83zm-19.13 0a.94.94 0 0 1-.938.94h-1.034a.94.94 0 0 1-.938-.94v-14.83c0-.517.42-.937.938-.937h1.034c.517 0 .938.42.938.938v14.83zm394.896-27.268H173.656c-5.325 0-9.642 4.318-9.642 9.645v16.78c0 3.3 1.66 6.209 4.187 7.948a7.782 7.782 0 0 1-.04-.773v-24.197c0-.903.734-1.636 1.636-1.636.902 0 1.636.733 1.636 1.636v24.197c0 .861.257 1.663.695 2.336.5.08 1.007.132 1.528.132h406.437c5.324 0 9.64-4.318 9.64-9.644v-16.78c0-5.326-4.316-9.644-9.64-9.644z" mask="url(#b)"/>
        <path fill="#FFF" d="M427.694 267.419c-1.485 0-2.583.453-3.36 1.386-.809.972-1.218 2.418-1.218 4.3 0 1.892.406 3.35 1.209 4.331.765.94 1.861 1.395 3.35 1.395 1.502 0 2.603-.453 3.366-1.381.797-.972 1.201-2.433 1.201-4.345 0-1.904-.403-3.355-1.199-4.317-.763-.921-1.858-1.37-3.349-1.37M245.872 267.581h-1.516v4.667h1.891c1.025 0 1.806-.212 2.32-.629.463-.373.687-.943.687-1.74 0-.826-.21-1.39-.644-1.718-.498-.38-1.445-.58-2.738-.58M552.537 273.435h2.574l-1.266-3.352zM206.112 83.94h-37.759a4.333 4.333 0 0 0-4.332 4.334v139.11a4.33 4.33 0 0 0 4.209 4.328 6.082 6.082 0 0 1-.068-.861V91.74c0-.903.733-1.637 1.635-1.637s1.636.734 1.636 1.636v139.11c0 .304.051.595.145.867h34.534a4.333 4.333 0 0 0 4.332-4.334V88.273a4.333 4.333 0 0 0-4.332-4.333M401.774 90.957l-20.795 84.178a1.63 1.63 0 0 1-1.98 1.197 1.626 1.626 0 0 1-1.007-.743 1.628 1.628 0 0 1-.188-1.238L398.6 90.172a1.631 1.631 0 0 1 1.979-1.196c.425.105.782.369 1.008.743.226.374.293.814.188 1.238m-78.94 40.787l-15.283 43.779a1.636 1.636 0 1 1-3.088-1.079l15.283-43.777a1.636 1.636 0 1 1 3.088 1.077M438.607 85.6a4.33 4.33 0 0 0-3.41-1.66H398.96c-.303 0-.597.035-.884.094-1.719.123-3.234 1.317-3.666 3.064l-20.794 84.178-14.848-43.509a4.331 4.331 0 0 0-4.225-3.378h-34.81a4.333 4.333 0 0 0-4.22 3.35l-15.282 43.778-20.854-84.42c-.413-1.676-1.827-2.84-3.46-3.041a4.328 4.328 0 0 0-.982-.117h-36.237a4.331 4.331 0 0 0-4.205 5.376l34.43 139.11a4.33 4.33 0 0 0 4.046 3.285L238.68 93.176a1.632 1.632 0 0 1 .188-1.24 1.624 1.624 0 0 1 1.006-.742 1.633 1.633 0 0 1 1.982 1.195l34.43 139.11c.018.076.05.146.074.219h41.185c2.03 0 3.86-1.396 4.228-3.393 1.685-9.147 15.347-52.318 15.347-52.318l15.19 52.307a4.33 4.33 0 0 0 4.052 3.396l-15.037-51.78a1.639 1.639 0 0 1 1.572-2.093c.723 0 1.369.486 1.57 1.18l15.208 52.382.004.016.004.015c.022.1.057.193.09.288h41.184a4.332 4.332 0 0 0 4.207-3.299l34.24-139.11a4.334 4.334 0 0 0-.797-3.709M509.684 122.96h6.605c5.863 0 10.625 1.072 14.402 3.239 5.02 1.195 8.95 3.554 11.887 7.138 4.54 5.542 6.842 14.405 6.842 26.34 0 12.834-2.453 22.392-7.29 28.41a1.15 1.15 0 0 1-.9.432 1.157 1.157 0 0 1-.9-1.88c4.5-5.597 6.78-14.669 6.78-26.961 0-11.388-2.127-19.758-6.319-24.875a17.557 17.557 0 0 0-4.776-4.06c4.293 5.34 6.473 13.904 6.473 25.468 0 12.563-2.367 21.877-7.034 27.686-4.5 5.601-11.608 8.324-21.733 8.324h-4.037v-69.26zm-41.901 108.758h.363a5.599 5.599 0 0 1-.075-.868V91.74a1.156 1.156 0 1 1 2.31 0v139.11c0 .3.046.591.124.868h42.266c24.209 0 43.36-6.757 56.917-20.083 13.576-13.347 20.46-32.443 20.46-56.757 0-22.708-6.588-40.418-19.58-52.636-12.915-12.145-31.306-18.303-54.658-18.303h-48.127a4.333 4.333 0 0 0-4.333 4.334v139.11a4.333 4.333 0 0 0 4.333 4.335z" mask="url(#b)"/>
    </g>
</svg>
